<?xml version="1.0" standalone="no"?>
<!DOCTYPE svg PUBLIC "-//W3C//DTD SVG 20010904//EN"
 "http://www.w3.org/TR/2001/REC-SVG-20010904/DTD/svg10.dtd">
<svg version="1.0" xmlns="http://www.w3.org/2000/svg"
 width="736.000000pt" height="552.000000pt" viewBox="0 0 736.000000 552.000000"
 preserveAspectRatio="xMidYMid meet">
<metadata>
Created by potrace 1.15, written by Peter Selinger 2001-2017
</metadata>
<g transform="translate(0.000000,552.000000) scale(0.100000,-0.100000)"
fill="#000000" stroke="none">
<path d="M4600 4383 c-128 -22 -249 -82 -331 -164 -111 -110 -158 -234 -214
-558 -14 -83 -35 -131 -35 -81 0 16 -3 21 -8 12 -6 -9 -14 -4 -30 18 -16 21
-31 30 -50 30 -18 0 -37 10 -50 25 -12 14 -26 25 -31 25 -6 0 -13 16 -17 36
-5 29 -9 33 -16 20 -5 -9 -13 -14 -19 -11 -13 9 -11 -18 6 -110 9 -44 18 -105
21 -135 l5 -55 -20 25 c-12 15 -21 19 -21 11 0 -11 -3 -11 -16 0 -13 10 -17
10 -25 -2 -8 -10 -8 -8 -4 10 5 15 2 27 -6 32 -17 11 -68 12 -54 1 17 -12 55
-81 80 -147 99 -263 22 -490 -239 -702 l-40 -32 48 -21 c222 -95 321 -291 255
-506 -95 -314 -454 -586 -906 -686 -84 -19 -130 -22 -323 -22 -255 -1 -355 13
-549 79 -58 19 -107 33 -109 30 -11 -10 121 -177 213 -270 253 -252 538 -379
910 -403 l120 -8 -114 -37 c-63 -20 -123 -37 -133 -37 -72 0 91 -58 292 -104
166 -38 274 -49 427 -43 163 6 270 30 385 87 116 58 163 93 273 204 l99 101
-43 -79 c-23 -44 -68 -118 -99 -165 -31 -47 -60 -91 -64 -98 -10 -14 84 7 191
43 336 115 599 327 729 589 51 103 88 226 102 340 6 49 13 91 16 94 2 2 4 -36
4 -85 0 -96 -13 -215 -35 -329 -30 -156 -34 -150 45 -65 242 257 403 537 451
783 20 102 15 298 -10 392 -27 101 -91 231 -154 313 -27 35 -47 65 -45 68 2 2
27 -21 56 -51 28 -30 48 -55 44 -55 -4 -1 4 -10 18 -21 14 -12 25 -24 25 -28
0 -3 4 -5 8 -3 5 1 6 -2 3 -7 -4 -5 6 -23 20 -40 14 -17 23 -31 20 -31 -7 0
24 -51 35 -60 15 -11 58 -113 52 -123 -3 -6 -1 -7 5 -3 6 3 18 -13 28 -41 l19
-48 22 95 c78 336 46 658 -92 917 -90 170 -243 332 -369 392 -81 38 -238 91
-270 91 -14 0 -28 5 -32 11 -8 14 48 5 111 -17 22 -7 50 -14 62 -14 12 0 25
-4 28 -10 3 -5 13 -10 21 -10 16 0 211 -93 274 -130 19 -11 34 -25 33 -30 -2
-5 6 -7 17 -5 11 2 20 0 20 -6 0 -5 7 -9 15 -9 8 0 15 -4 15 -8 0 -4 13 -16
30 -25 l29 -18 -17 47 c-31 86 -139 289 -151 286 -7 -1 -10 2 -6 8 13 21 -166
247 -186 234 -5 -3 -6 3 -2 12 5 14 3 16 -11 11 -9 -4 -15 -3 -11 3 5 8 -43
50 -144 127 -44 35 -213 113 -246 116 -17 1 -32 5 -35 9 -14 18 -232 33 -300
21z"/>
</g>
</svg>
